<?xml version="1.0" encoding="UTF-8"?>
<svg width="512" height="512" viewBox="0 0 512 512" fill="none" xmlns="http://www.w3.org/2000/svg">
  <path d="M256 64C185.019 64 128 121.019 128 192C128 215.255 134.047 237.011 145.069 255.796C151.605 266.431 159.557 275.972 168.693 284.183L256 364.118L343.307 284.183C352.443 275.972 360.395 266.431 366.931 255.796C377.953 237.011 384 215.255 384 192C384 121.019 326.981 64 256 64Z" fill="#FFFFFF"/>
  <path d="M256 448L107.538 311.368C87.121 292.716 72.014 269.307 63.431 243.245C54.848 217.183 53.097 189.373 58.349 162.567C63.6 135.762 75.672 110.847 93.386 89.935C111.1 69.023 133.866 52.757 159.684 42.606C185.502 32.455 213.528 28.731 241.267 31.772C269.006 34.814 295.528 44.527 318.453 60.067C341.378 75.606 360.006 96.51 372.756 121.099C385.506 145.688 391.992 173.16 391.777 201.037" stroke="#FFFFFF" stroke-width="32" stroke-linecap="round"/>
</svg>